<mxfile host="app.diagrams.net" modified="2022-10-31T02:00:10.806Z" agent="5.0 (Macintosh; Intel Mac OS X 10_15_7) AppleWebKit/537.36 (KHTML, like Gecko) Chrome/106.0.0.0 Safari/537.36" etag="9yI4Rd_PN41BwdxXPSg-" version="20.5.1" type="github">
  <diagram id="R2lEEEUBdFMjLlhIrx00" name="Page-1">
    <mxGraphModel dx="946" dy="614" grid="1" gridSize="10" guides="1" tooltips="1" connect="1" arrows="1" fold="1" page="1" pageScale="1" pageWidth="850" pageHeight="1100" math="0" shadow="0" extFonts="Permanent Marker^https://fonts.googleapis.com/css?family=Permanent+Marker">
      <root>
        <mxCell id="0" />
        <mxCell id="1" parent="0" />
        <mxCell id="rmPYgADiZT3uEsB4otHl-1" value="Cars" style="rounded=0;whiteSpace=wrap;html=1;" vertex="1" parent="1">
          <mxGeometry x="130" y="140" width="110" height="40" as="geometry" />
        </mxCell>
        <mxCell id="rmPYgADiZT3uEsB4otHl-2" value="Drivvers" style="rounded=0;whiteSpace=wrap;html=1;" vertex="1" parent="1">
          <mxGeometry x="210" y="390" width="110" height="40" as="geometry" />
        </mxCell>
        <mxCell id="rmPYgADiZT3uEsB4otHl-3" value="Races" style="rounded=0;whiteSpace=wrap;html=1;" vertex="1" parent="1">
          <mxGeometry x="440" y="140" width="110" height="40" as="geometry" />
        </mxCell>
        <mxCell id="rmPYgADiZT3uEsB4otHl-4" value="" style="endArrow=none;html=1;rounded=0;exitX=0.5;exitY=0;exitDx=0;exitDy=0;" edge="1" parent="1" source="rmPYgADiZT3uEsB4otHl-1">
          <mxGeometry width="50" height="50" relative="1" as="geometry">
            <mxPoint x="230" y="340" as="sourcePoint" />
            <mxPoint x="210" y="100" as="targetPoint" />
            <Array as="points" />
          </mxGeometry>
        </mxCell>
        <mxCell id="rmPYgADiZT3uEsB4otHl-5" value="VIN number" style="ellipse;whiteSpace=wrap;html=1;" vertex="1" parent="1">
          <mxGeometry x="180" y="60" width="90" height="40" as="geometry" />
        </mxCell>
        <mxCell id="rmPYgADiZT3uEsB4otHl-8" value="" style="endArrow=none;html=1;rounded=0;exitX=0;exitY=0.5;exitDx=0;exitDy=0;" edge="1" parent="1" source="rmPYgADiZT3uEsB4otHl-1">
          <mxGeometry width="50" height="50" relative="1" as="geometry">
            <mxPoint x="230" y="340" as="sourcePoint" />
            <mxPoint x="70" y="160" as="targetPoint" />
          </mxGeometry>
        </mxCell>
        <mxCell id="rmPYgADiZT3uEsB4otHl-10" value="" style="endArrow=none;html=1;rounded=0;exitX=0.155;exitY=0.025;exitDx=0;exitDy=0;exitPerimeter=0;" edge="1" parent="1" source="rmPYgADiZT3uEsB4otHl-1">
          <mxGeometry width="50" height="50" relative="1" as="geometry">
            <mxPoint x="140" y="170" as="sourcePoint" />
            <mxPoint x="70" y="90" as="targetPoint" />
            <Array as="points">
              <mxPoint x="100" y="110" />
            </Array>
          </mxGeometry>
        </mxCell>
      </root>
    </mxGraphModel>
  </diagram>
</mxfile>
